<svg width="12.632202" height="12.607422" viewBox="0 0 12.6322 12.6074" fill="none" xmlns="http://www.w3.org/2000/svg" xmlns:xlink="http://www.w3.org/1999/xlink">
	<desc>
			Created with Pixso.
	</desc>
	<defs/>
	<path id="in" d="M2.56158 12.6074L0.141889 12.6074L0.141889 3.57948L2.56158 3.57948L2.56158 12.6074ZM4.50015e-05 1.24323Q4.50015e-05 0.70089 0.362998 0.350452Q0.725951 1.43051e-05 1.35173 1.43051e-05Q1.96917 1.43051e-05 2.3363 0.350452Q2.70342 0.70089 2.70342 1.24323Q2.70342 1.79392 2.33212 2.14436Q1.96083 2.4948 1.35173 2.4948Q0.742639 2.4948 0.371342 2.14436Q4.50015e-05 1.79392 4.50015e-05 1.24323ZM7.10859 3.57948L7.18368 4.62245Q8.15156 3.41261 9.77859 3.41261Q11.2137 3.41261 11.9146 4.25533Q12.6155 5.09805 12.6322 6.77514L12.6322 12.6074L10.2208 12.6074L10.2208 6.83355Q10.2208 6.06592 9.88706 5.71966Q9.55331 5.37339 8.77734 5.37339Q7.7594 5.37339 7.25043 6.24114L7.25043 12.6074L4.83909 12.6074L4.83909 3.57948L7.10859 3.57948Z" fill="#2A2F2F" fill-opacity="1.000000" fill-rule="evenodd"/>
</svg>
