<svg width="15.583740" height="15.580566" viewBox="0 0 15.5837 15.5806" fill="none" xmlns="http://www.w3.org/2000/svg" xmlns:xlink="http://www.w3.org/1999/xlink">
	<desc>
			Created with Pixso.
	</desc>
	<defs/>
	<path id="Vector" d="M7.79358 3.79565C5.58252 3.79565 3.79907 5.5791 3.79907 7.79004C3.79907 10.0012 5.58252 11.7847 7.79358 11.7847C10.0046 11.7847 11.7882 10.0012 11.7882 7.79004C11.7882 5.5791 10.0046 3.79565 7.79358 3.79565ZM7.79358 10.3872C6.36475 10.3872 5.19653 9.22241 5.19653 7.79004C5.19653 6.35767 6.36121 5.19312 7.79358 5.19312C9.22595 5.19312 10.3906 6.35767 10.3906 7.79004C10.3906 9.22241 9.22241 10.3872 7.79358 10.3872ZM12.8833 3.63208C12.8833 4.15015 12.4661 4.56396 11.9515 4.56396C11.4336 4.56396 11.0198 4.14673 11.0198 3.63208C11.0198 3.11768 11.437 2.70044 11.9515 2.70044C12.4661 2.70044 12.8833 3.11768 12.8833 3.63208ZM15.5289 4.57788C15.4698 3.32959 15.1848 2.22412 14.2704 1.31323C13.3596 0.402344 12.254 0.117432 11.006 0.0546875C9.7196 -0.0183105 5.86414 -0.0183105 4.57776 0.0546875C3.33313 0.11377 2.22766 0.398926 1.31323 1.30981C0.398926 2.2207 0.11731 3.32617 0.0548096 4.57422C-0.0183105 5.8606 -0.0183105 9.71606 0.0548096 11.0024C0.113892 12.2505 0.398926 13.356 1.31323 14.2671C2.22766 15.1777 3.32971 15.4629 4.57776 15.5254C5.86414 15.5986 9.7196 15.5986 11.006 15.5254C12.254 15.4663 13.3596 15.1812 14.2704 14.2671C15.1813 13.356 15.4663 12.2505 15.5289 11.0024C15.6019 9.71606 15.6019 5.86401 15.5289 4.57788ZM13.8672 12.3828C13.5959 13.064 13.071 13.5889 12.3861 13.8638C11.3606 14.2705 8.927 14.1768 7.79358 14.1768C6.66028 14.1768 4.22314 14.2671 3.20105 13.8638C2.51965 13.5923 1.99463 13.0674 1.71997 12.3828C1.31323 11.3569 1.4071 8.92358 1.4071 7.79004C1.4071 6.65674 1.31677 4.21973 1.71997 3.19751C1.99121 2.51611 2.51611 1.99121 3.20105 1.71655C4.22668 1.30981 6.66028 1.40356 7.79358 1.40356C8.927 1.40356 11.364 1.31323 12.3861 1.71655C13.0675 1.98779 13.5925 2.5127 13.8672 3.19751C14.2739 4.22314 14.1801 6.65674 14.1801 7.79004C14.1801 8.92358 14.2739 11.3604 13.8672 12.3828Z" fill="#2A2F2F" fill-opacity="1.000000" fill-rule="nonzero"/>
</svg>
